<svg width="28" height="25" viewBox="0 0 28 25" fill="none" xmlns="http://www.w3.org/2000/svg">
<path d="M5.34577 13.2887C5.34435 13.281 5.34306 13.2732 5.3419 13.2655L3.71508 3.50454C3.55435 2.54016 2.71997 1.83333 1.7423 1.83333H1.33464C0.966446 1.83333 0.667969 1.53486 0.667969 1.16667C0.667969 0.798477 0.966446 0.5 1.33464 0.5H1.7423C3.33139 0.5 4.69334 1.62039 5.00831 3.16667H26.668C27.1109 3.16667 27.4307 3.5906 27.309 4.01648L24.6423 13.3498C24.5605 13.636 24.299 13.8333 24.0013 13.8333H6.78828L6.95419 14.8288C7.11492 15.7932 7.9493 16.5 8.92697 16.5H24.0013C24.3695 16.5 24.668 16.7985 24.668 17.1667C24.668 17.5349 24.3695 17.8333 24.0013 17.8333H8.92697C7.29751 17.8333 5.90688 16.6553 5.639 15.048L5.34577 13.2887ZM5.23272 4.5L6.56605 12.5H23.4984L25.7842 4.5H5.23272ZM8.66797 24.5C7.19521 24.5 6.0013 23.3061 6.0013 21.8333C6.0013 20.3606 7.19521 19.1667 8.66797 19.1667C10.1407 19.1667 11.3346 20.3606 11.3346 21.8333C11.3346 23.3061 10.1407 24.5 8.66797 24.5ZM8.66797 23.1667C9.40435 23.1667 10.0013 22.5697 10.0013 21.8333C10.0013 21.097 9.40435 20.5 8.66797 20.5C7.93159 20.5 7.33464 21.097 7.33464 21.8333C7.33464 22.5697 7.93159 23.1667 8.66797 23.1667ZM20.668 24.5C19.1952 24.5 18.0013 23.3061 18.0013 21.8333C18.0013 20.3606 19.1952 19.1667 20.668 19.1667C22.1407 19.1667 23.3346 20.3606 23.3346 21.8333C23.3346 23.3061 22.1407 24.5 20.668 24.5ZM20.668 23.1667C21.4043 23.1667 22.0013 22.5697 22.0013 21.8333C22.0013 21.097 21.4043 20.5 20.668 20.5C19.9316 20.5 19.3346 21.097 19.3346 21.8333C19.3346 22.5697 19.9316 23.1667 20.668 23.1667Z" fill="#3D1551"/>
</svg>
