<svg width="107" height="17" viewBox="0 0 107 17" fill="none" xmlns="http://www.w3.org/2000/svg">
<rect width="17.3402" height="16.9279" fill="white"/>
<path fill-rule="evenodd" clip-rule="evenodd" d="M8.15546 1.54815C8.22742 1.33062 8.4355 1.18335 8.67046 1.18335C8.90542 1.18335 9.1135 1.33062 9.18546 1.54815C9.63023 2.88291 10.2389 4.71281 10.4955 5.48302C10.5675 5.70055 10.7756 5.84867 11.0105 5.84867C11.8403 5.84867 13.811 5.84867 15.2485 5.84867C15.4834 5.84867 15.6915 5.99595 15.7635 6.21432C15.8363 6.43184 15.7565 6.67053 15.5666 6.8051C14.404 7.63034 12.8096 8.76111 12.1385 9.23678C11.9486 9.37221 11.8689 9.6109 11.9417 9.82842C12.1983 10.5995 12.807 12.4285 13.2509 13.7633C13.3237 13.9808 13.2439 14.2195 13.0541 14.3549C12.8642 14.4895 12.6076 14.4895 12.4177 14.3549C11.2542 13.5297 9.66059 12.3989 8.98866 11.9233C8.79878 11.7878 8.54214 11.7878 8.35226 11.9233C7.68033 12.3989 6.08677 13.5297 4.92324 14.3549C4.73337 14.4895 4.47674 14.4895 4.28686 14.3549C4.09699 14.2195 4.01722 13.9808 4.09005 13.7633C4.53395 12.4285 5.1426 10.5995 5.39924 9.82842C5.47207 9.6109 5.3923 9.37221 5.20242 9.23678C4.53136 8.76111 2.93693 7.63034 1.77427 6.8051C1.5844 6.67053 1.50463 6.43184 1.57746 6.21432C1.64942 5.99595 1.8575 5.84867 2.09246 5.84867C3.52996 5.84867 5.50067 5.84867 6.3304 5.84867C6.56536 5.84867 6.77345 5.70055 6.84541 5.48302C7.10204 4.71281 7.71069 2.88291 8.15546 1.54815Z" fill="#3D1551"/>
<path fill-rule="evenodd" clip-rule="evenodd" d="M6.32961 5.31962H2.09167C1.62175 5.31962 1.20646 5.615 1.0608 6.05089C0.916014 6.48678 1.07467 6.96415 1.45442 7.23331L4.88344 9.66501L3.57339 13.5999C3.4286 14.0358 3.58727 14.5132 3.96702 14.7823C4.34677 15.0515 4.86178 15.0515 5.24153 14.7823L8.66968 12.3506L12.0978 14.7823C12.4776 15.0515 12.9926 15.0515 13.3723 14.7823C13.7521 14.5132 13.9108 14.0358 13.766 13.5999L12.4559 9.66501L15.8849 7.23331C16.2647 6.96415 16.4233 6.48678 16.2785 6.05089C16.1329 5.615 15.7176 5.31962 15.2477 5.31962H11.0097L9.70055 1.38472C9.55489 0.948822 9.1396 0.654297 8.66968 0.654297C8.19976 0.654297 7.78446 0.948822 7.63881 1.38472L6.32961 5.31962ZM8.66968 1.71229L9.97886 5.64632C10.1245 6.08221 10.5407 6.37761 11.0097 6.37761H15.2477L11.8195 8.80929C11.4398 9.07845 11.2802 9.55582 11.4259 9.99171L12.7351 13.9266L9.30693 11.4949C8.92718 11.2258 8.41217 11.2258 8.03242 11.4949L4.60427 13.9266L5.91345 9.99171C6.05911 9.55582 5.89959 9.07845 5.51984 8.80929L2.09167 6.37761H6.32961C6.79867 6.37761 7.21484 6.08221 7.3605 5.64632L8.66968 1.71229Z" fill="#3D1551"/>
<rect width="17.3402" height="16.9279" transform="translate(22.3398)" fill="white"/>
<path fill-rule="evenodd" clip-rule="evenodd" d="M30.4953 1.54815C30.5673 1.33062 30.7753 1.18335 31.0103 1.18335C31.2453 1.18335 31.4533 1.33062 31.5253 1.54815C31.9701 2.88291 32.5787 4.71281 32.8354 5.48302C32.9073 5.70055 33.1154 5.84867 33.3504 5.84867C34.1801 5.84867 36.1508 5.84867 37.5883 5.84867C37.8233 5.84867 38.0313 5.99595 38.1033 6.21432C38.1761 6.43184 38.0964 6.67053 37.9065 6.8051C36.7438 7.63034 35.1494 8.76111 34.4783 9.23678C34.2885 9.37221 34.2087 9.6109 34.2815 9.82842C34.5382 10.5995 35.1468 12.4285 35.5907 13.7633C35.6635 13.9808 35.5838 14.2195 35.3939 14.3549C35.204 14.4895 34.9474 14.4895 34.7575 14.3549C33.594 13.5297 32.0004 12.3989 31.3285 11.9233C31.1386 11.7878 30.882 11.7878 30.6921 11.9233C30.0202 12.3989 28.4266 13.5297 27.2631 14.3549C27.0732 14.4895 26.8166 14.4895 26.6267 14.3549C26.4368 14.2195 26.3571 13.9808 26.4299 13.7633C26.8738 12.4285 27.4824 10.5995 27.7391 9.82842C27.8119 9.6109 27.7321 9.37221 27.5423 9.23678C26.8712 8.76111 25.2768 7.63034 24.1141 6.8051C23.9242 6.67053 23.8445 6.43184 23.9173 6.21432C23.9893 5.99595 24.1973 5.84867 24.4323 5.84867C25.8698 5.84867 27.8405 5.84867 28.6702 5.84867C28.9052 5.84867 29.1133 5.70055 29.1853 5.48302C29.4419 4.71281 30.0505 2.88291 30.4953 1.54815Z" fill="#3D1551"/>
<path fill-rule="evenodd" clip-rule="evenodd" d="M28.6695 5.31962H24.4315C23.9616 5.31962 23.5463 5.615 23.4006 6.05089C23.2559 6.48678 23.4145 6.96415 23.7943 7.23331L27.2233 9.66501L25.9132 13.5999C25.7684 14.0358 25.9271 14.5132 26.3069 14.7823C26.6866 15.0515 27.2016 15.0515 27.5814 14.7823L31.0095 12.3506L34.4377 14.7823C34.8174 15.0515 35.3324 15.0515 35.7122 14.7823C36.0919 14.5132 36.2506 14.0358 36.1058 13.5999L34.7958 9.66501L38.2248 7.23331C38.6045 6.96415 38.7632 6.48678 38.6184 6.05089C38.4727 5.615 38.0574 5.31962 37.5875 5.31962H33.3496L32.0404 1.38472C31.8947 0.948822 31.4794 0.654297 31.0095 0.654297C30.5396 0.654297 30.1243 0.948822 29.9787 1.38472L28.6695 5.31962ZM31.0095 1.71229L32.3187 5.64632C32.4644 6.08221 32.8805 6.37761 33.3496 6.37761H37.5875L34.1594 8.80929C33.7796 9.07845 33.6201 9.55582 33.7657 9.99171L35.0749 13.9266L31.6468 11.4949C31.267 11.2258 30.752 11.2258 30.3723 11.4949L26.9441 13.9266L28.2533 9.99171C28.399 9.55582 28.2394 9.07845 27.8597 8.80929L24.4315 6.37761H28.6695C29.1385 6.37761 29.5547 6.08221 29.7003 5.64632L31.0095 1.71229Z" fill="#3D1551"/>
<rect width="17.3402" height="16.9279" transform="translate(44.6797)" fill="white"/>
<path fill-rule="evenodd" clip-rule="evenodd" d="M52.8351 1.54815C52.9071 1.33062 53.1152 1.18335 53.3501 1.18335C53.5851 1.18335 53.7932 1.33062 53.8651 1.54815C54.3099 2.88291 54.9186 4.71281 55.1752 5.48302C55.2472 5.70055 55.4552 5.84867 55.6902 5.84867C56.5199 5.84867 58.4906 5.84867 59.9282 5.84867C60.1631 5.84867 60.3712 5.99595 60.4431 6.21432C60.516 6.43184 60.4362 6.67053 60.2463 6.8051C59.0837 7.63034 57.4892 8.76111 56.8182 9.23678C56.6283 9.37221 56.5485 9.6109 56.6214 9.82842C56.878 10.5995 57.4867 12.4285 57.9306 13.7633C58.0034 13.9808 57.9236 14.2195 57.7337 14.3549C57.5439 14.4895 57.2872 14.4895 57.0974 14.3549C55.9338 13.5297 54.3403 12.3989 53.6683 11.9233C53.4785 11.7878 53.2218 11.7878 53.032 11.9233C52.36 12.3989 50.7665 13.5297 49.6029 14.3549C49.4131 14.4895 49.1564 14.4895 48.9665 14.3549C48.7767 14.2195 48.6969 13.9808 48.7697 13.7633C49.2136 12.4285 49.8223 10.5995 50.0789 9.82842C50.1518 9.6109 50.072 9.37221 49.8821 9.23678C49.211 8.76111 47.6166 7.63034 46.454 6.8051C46.2641 6.67053 46.1843 6.43184 46.2571 6.21432C46.3291 5.99595 46.5372 5.84867 46.7721 5.84867C48.2096 5.84867 50.1804 5.84867 51.0101 5.84867C51.245 5.84867 51.4531 5.70055 51.5251 5.48302C51.7817 4.71281 52.3904 2.88291 52.8351 1.54815Z" fill="#3D1551"/>
<path fill-rule="evenodd" clip-rule="evenodd" d="M51.0093 5.31962H46.7714C46.3014 5.31962 45.8861 5.615 45.7405 6.05089C45.5957 6.48678 45.7544 6.96415 46.1341 7.23331L49.5631 9.66501L48.2531 13.5999C48.1083 14.0358 48.267 14.5132 48.6467 14.7823C49.0265 15.0515 49.5415 15.0515 49.9212 14.7823L53.3494 12.3506L56.7775 14.7823C57.1573 15.0515 57.6723 15.0515 58.052 14.7823C58.4318 14.5132 58.5904 14.0358 58.4456 13.5999L57.1356 9.66501L60.5646 7.23331C60.9444 6.96415 61.103 6.48678 60.9582 6.05089C60.8126 5.615 60.3973 5.31962 59.9274 5.31962H55.6894L54.3802 1.38472C54.2346 0.948822 53.8193 0.654297 53.3494 0.654297C52.8794 0.654297 52.4642 0.948822 52.3185 1.38472L51.0093 5.31962ZM53.3494 1.71229L54.6585 5.64632C54.8042 6.08221 55.2204 6.37761 55.6894 6.37761H59.9274L56.4992 8.80929C56.1195 9.07845 55.9599 9.55582 56.1056 9.99171L57.4148 13.9266L53.9866 11.4949C53.6069 11.2258 53.0919 11.2258 52.7121 11.4949L49.284 13.9266L50.5931 9.99171C50.7388 9.55582 50.5793 9.07845 50.1995 8.80929L46.7714 6.37761H51.0093C51.4784 6.37761 51.8945 6.08221 52.0402 5.64632L53.3494 1.71229Z" fill="#3D1551"/>
<rect width="17.3402" height="16.9279" transform="translate(67.0195)" fill="white"/>
<path fill-rule="evenodd" clip-rule="evenodd" d="M75.175 1.54815C75.247 1.33062 75.455 1.18335 75.69 1.18335C75.925 1.18335 76.133 1.33062 76.205 1.54815C76.6498 2.88291 77.2584 4.71281 77.515 5.48302C77.587 5.70055 77.7951 5.84867 78.0301 5.84867C78.8598 5.84867 80.8305 5.84867 82.268 5.84867C82.503 5.84867 82.711 5.99595 82.783 6.21432C82.8558 6.43184 82.7761 6.67053 82.5862 6.8051C81.4235 7.63034 79.8291 8.76111 79.158 9.23678C78.9682 9.37221 78.8884 9.6109 78.9612 9.82842C79.2178 10.5995 79.8265 12.4285 80.2704 13.7633C80.3432 13.9808 80.2635 14.2195 80.0736 14.3549C79.8837 14.4895 79.6271 14.4895 79.4372 14.3549C78.2737 13.5297 76.6801 12.3989 76.0082 11.9233C75.8183 11.7878 75.5617 11.7878 75.3718 11.9233C74.6999 12.3989 73.1063 13.5297 71.9428 14.3549C71.7529 14.4895 71.4963 14.4895 71.3064 14.3549C71.1165 14.2195 71.0367 13.9808 71.1096 13.7633C71.5535 12.4285 72.1621 10.5995 72.4188 9.82842C72.4916 9.6109 72.4118 9.37221 72.222 9.23678C71.5509 8.76111 69.9565 7.63034 68.7938 6.8051C68.6039 6.67053 68.5242 6.43184 68.597 6.21432C68.669 5.99595 68.877 5.84867 69.112 5.84867C70.5495 5.84867 72.5202 5.84867 73.3499 5.84867C73.5849 5.84867 73.793 5.70055 73.8649 5.48302C74.1216 4.71281 74.7302 2.88291 75.175 1.54815Z" fill="#3D1551"/>
<path fill-rule="evenodd" clip-rule="evenodd" d="M73.3491 5.31962H69.1112C68.6413 5.31962 68.226 5.615 68.0803 6.05089C67.9355 6.48678 68.0942 6.96415 68.474 7.23331L71.903 9.66501L70.5929 13.5999C70.4481 14.0358 70.6068 14.5132 70.9866 14.7823C71.3663 15.0515 71.8813 15.0515 72.2611 14.7823L75.6892 12.3506L79.1174 14.7823C79.4971 15.0515 80.0121 15.0515 80.3919 14.7823C80.7716 14.5132 80.9303 14.0358 80.7855 13.5999L79.4754 9.66501L82.9045 7.23331C83.2842 6.96415 83.4429 6.48678 83.2981 6.05089C83.1524 5.615 82.7371 5.31962 82.2672 5.31962H78.0293L76.7201 1.38472C76.5744 0.948822 76.1591 0.654297 75.6892 0.654297C75.2193 0.654297 74.804 0.948822 74.6583 1.38472L73.3491 5.31962ZM75.6892 1.71229L76.9984 5.64632C77.144 6.08221 77.5602 6.37761 78.0293 6.37761H82.2672L78.839 8.80929C78.4593 9.07845 78.2998 9.55582 78.4454 9.99171L79.7546 13.9266L76.3265 11.4949C75.9467 11.2258 75.4317 11.2258 75.052 11.4949L71.6238 13.9266L72.933 9.99171C73.0786 9.55582 72.9191 9.07845 72.5394 8.80929L69.1112 6.37761H73.3491C73.8182 6.37761 74.2344 6.08221 74.38 5.64632L75.6892 1.71229Z" fill="#3D1551"/>
<rect width="17.3402" height="16.9279" transform="translate(89.3594)" fill="white"/>
<path fill-rule="evenodd" clip-rule="evenodd" d="M97.5148 1.54815C97.5868 1.33062 97.7949 1.18335 98.0298 1.18335C98.2648 1.18335 98.4729 1.33062 98.5448 1.54815C98.9896 2.88291 99.5983 4.71281 99.8549 5.48302C99.9268 5.70055 100.135 5.84867 100.37 5.84867C101.2 5.84867 103.17 5.84867 104.608 5.84867C104.843 5.84867 105.051 5.99595 105.123 6.21432C105.196 6.43184 105.116 6.67053 104.926 6.8051C103.763 7.63034 102.169 8.76111 101.498 9.23678C101.308 9.37221 101.228 9.6109 101.301 9.82842C101.558 10.5995 102.166 12.4285 102.61 13.7633C102.683 13.9808 102.603 14.2195 102.413 14.3549C102.224 14.4895 101.967 14.4895 101.777 14.3549C100.614 13.5297 99.02 12.3989 98.348 11.9233C98.1582 11.7878 97.9015 11.7878 97.7116 11.9233C97.0397 12.3989 95.4461 13.5297 94.2826 14.3549C94.0927 14.4895 93.8361 14.4895 93.6462 14.3549C93.4564 14.2195 93.3766 13.9808 93.4494 13.7633C93.8933 12.4285 94.502 10.5995 94.7586 9.82842C94.8314 9.6109 94.7517 9.37221 94.5618 9.23678C93.8907 8.76111 92.2963 7.63034 91.1336 6.8051C90.9438 6.67053 90.864 6.43184 90.9368 6.21432C91.0088 5.99595 91.2169 5.84867 91.4518 5.84867C92.8893 5.84867 94.86 5.84867 95.6898 5.84867C95.9247 5.84867 96.1328 5.70055 96.2048 5.48302C96.4614 4.71281 97.0701 2.88291 97.5148 1.54815Z" fill="#3D1551"/>
<path fill-rule="evenodd" clip-rule="evenodd" d="M95.689 5.31962H91.451C90.9811 5.31962 90.5658 5.615 90.4202 6.05089C90.2754 6.48678 90.434 6.96415 90.8138 7.23331L94.2428 9.66501L92.9328 13.5999C92.788 14.0358 92.9466 14.5132 93.3264 14.7823C93.7061 15.0515 94.2212 15.0515 94.6009 14.7823L98.0291 12.3506L101.457 14.7823C101.837 15.0515 102.352 15.0515 102.732 14.7823C103.111 14.5132 103.27 14.0358 103.125 13.5999L101.815 9.66501L105.244 7.23331C105.624 6.96415 105.783 6.48678 105.638 6.05089C105.492 5.615 105.077 5.31962 104.607 5.31962H100.369L99.0599 1.38472C98.9143 0.948822 98.499 0.654297 98.0291 0.654297C97.5591 0.654297 97.1438 0.948822 96.9982 1.38472L95.689 5.31962ZM98.0291 1.71229L99.3382 5.64632C99.4839 6.08221 99.9001 6.37761 100.369 6.37761H104.607L101.179 8.80929C100.799 9.07845 100.64 9.55582 100.785 9.99171L102.094 13.9266L98.6663 11.4949C98.2866 11.2258 97.7715 11.2258 97.3918 11.4949L93.9636 13.9266L95.2728 9.99171C95.4185 9.55582 95.259 9.07845 94.8792 8.80929L91.451 6.37761H95.689C96.158 6.37761 96.5742 6.08221 96.7199 5.64632L98.0291 1.71229Z" fill="#3D1551"/>
</svg>
